<?xml version="1.0" encoding="UTF-8" standalone="no"?>
<!-- Created with Inkscape (http://www.inkscape.org/) -->
<svg
   xmlns:dc="http://purl.org/dc/elements/1.1/"
   xmlns:cc="http://web.resource.org/cc/"
   xmlns:rdf="http://www.w3.org/1999/02/22-rdf-syntax-ns#"
   xmlns:svg="http://www.w3.org/2000/svg"
   xmlns="http://www.w3.org/2000/svg"
   xmlns:sodipodi="http://inkscape.sourceforge.net/DTD/sodipodi-0.dtd"
   xmlns:inkscape="http://www.inkscape.org/namespaces/inkscape"
   version="1.0"
   width="48pt"
   height="48pt"
   viewBox="0 0 256 256"
   id="svg153"
   xml:space="preserve"
   sodipodi:version="0.32"
   inkscape:version="0.43"
   sodipodi:docname="add_text.svg"
   sodipodi:docbase="/home/jc/workspace3/flame-edit/images"><metadata
   id="metadata1430"><rdf:RDF><cc:Work
       rdf:about=""><dc:format>image/svg+xml</dc:format><dc:type
         rdf:resource="http://purl.org/dc/dcmitype/StillImage" /></cc:Work></rdf:RDF></metadata><sodipodi:namedview
   inkscape:window-height="949"
   inkscape:window-width="1280"
   inkscape:pageshadow="2"
   inkscape:pageopacity="0.0"
   borderopacity="1.0"
   bordercolor="#666666"
   pagecolor="#ffffff"
   id="base"
   inkscape:zoom="12.95"
   inkscape:cx="30"
   inkscape:cy="30"
   inkscape:window-x="0"
   inkscape:window-y="25"
   inkscape:current-layer="svg153" />
  <defs
   id="defs172" />
  
  <g
   style="stroke:#000000"
   id="Layer_2">
    <path
   d="M 256,256 L 0,256 L 0,0 L 256,0 L 256,256 z "
   style="fill:none;stroke:none"
   id="path155" />
  </g>
  <g
   style="stroke:#000000"
   id="Layer_1">
    <path
   d="M 50.867,22.925 C 41.93,22.925 34.66,30.195 34.66,39.132 L 34.66,229.793 C 34.66,238.73 41.93,246 50.867,246 L 218.65,246 C 227.587,246 234.856,238.729 234.856,229.793 L 234.856,39.132 C 234.856,30.195 227.586,22.925 218.65,22.925 L 50.867,22.925 L 50.867,22.925 z "
   style="opacity:0.2;stroke:none"
   id="path157" />
    <path
   d="M 43.97,16.206 C 35.033,16.206 27.763,23.476 27.763,32.412 L 27.763,223.075 C 27.763,232.011 35.033,239.281 43.97,239.281 L 211.753,239.281 C 220.689,239.281 227.959,232.01 227.959,223.075 L 227.959,32.412 C 227.959,23.476 220.688,16.206 211.753,16.206 L 43.97,16.206 z "
   style="fill:#003366;stroke:none"
   id="path158" />
    <path
   d="M 32.53,223.074 C 32.53,229.391 37.652,234.513 43.97,234.513 L 211.753,234.513 C 218.069,234.513 223.192,229.391 223.192,223.074 L 223.192,32.412 C 223.192,26.094 218.069,20.972 211.753,20.972 L 43.97,20.972 C 37.652,20.972 32.53,26.094 32.53,32.412 L 32.53,223.074 z "
   style="fill:#3399ff;stroke:none"
   id="path159" />
    <linearGradient
   x1="86.394997"
   y1="86.276398"
   x2="312.32861"
   y2="312.2099"
   id="XMLID_1_"
   gradientUnits="userSpaceOnUse">
      <stop
   style="stop-color:#ffffff;stop-opacity:1"
   offset="0"
   id="stop161" />
      <stop
   style="stop-color:#99ccff;stop-opacity:1"
   offset="1"
   id="stop162" />
    </linearGradient>
    <path
   d="M 43.97,25.739 C 40.291,25.739 37.297,28.733 37.297,32.412 L 37.297,223.075 C 37.297,226.754 40.291,229.748 43.97,229.748 L 211.753,229.748 C 215.432,229.748 218.426,226.754 218.426,223.075 L 218.426,32.412 C 218.426,28.733 215.432,25.739 211.753,25.739 L 43.97,25.739 L 43.97,25.739 z "
   style="fill:url(#XMLID_1_);stroke:none"
   id="path166" />
    <g
   id="g167">
      
      
    </g>
    <path
   d="M 161.228,106.77 C 178.952,90.153 200.254,81.978 223.193,77.918 L 223.193,32.412 C 223.193,26.094 218.07,20.972 211.754,20.972 L 43.97,20.972 C 37.652,20.972 32.53,26.094 32.53,32.412 L 32.53,168.99 C 79.797,172.557 124.503,139.668 161.228,106.77 z "
   style="opacity:0.4;fill:#ffffff;stroke:none"
   id="path170" />
  </g>
<path
   style="font-size:13.0414114px;font-style:normal;font-variant:normal;font-weight:normal;font-stretch:normal;text-align:start;line-height:125%;writing-mode:lr-tb;text-anchor:start;font-family:Sans"
   d="M 94.768669,94.44336 L 78.785328,137.78503 L 110.81034,137.78503 L 94.768669,94.44336 M 88.118668,82.835031 L 101.477,82.835031 L 134.66866,169.9267 L 122.41867,169.9267 L 114.48533,147.58503 L 75.226999,147.58503 L 67.293667,169.9267 L 54.868664,169.9267 L 88.118668,82.835031 M 176.552,137.08503 C 167.87975,137.08507 161.87142,138.07673 158.527,140.06003 C 155.18254,142.0434 153.51032,145.42672 153.51034,150.21004 C 153.51032,154.02116 154.75477,157.05449 157.24367,159.31003 C 159.77143,161.52671 163.19364,162.63504 167.51034,162.63503 C 173.4603,162.63504 178.22418,160.53505 181.80201,156.33504 C 185.41862,152.09616 187.22696,146.47672 187.227,139.4767 L 187.227,137.08503 L 176.552,137.08503 M 197.96034,132.6517 L 197.96034,169.9267 L 187.227,169.9267 L 187.227,160.01003 C 184.77695,163.97671 181.72418,166.91281 178.06867,168.81837 C 174.41308,170.68503 169.94086,171.61836 164.652,171.61836 C 157.9631,171.61836 152.63532,169.7517 148.66867,166.01837 C 144.74089,162.24616 142.777,157.21004 142.777,150.91003 C 142.777,143.56005 145.22699,138.0184 150.127,134.28503 C 155.06588,130.55173 162.41586,128.68508 172.177,128.68503 L 187.227,128.68503 L 187.227,127.63503 C 187.22696,122.69619 185.59362,118.88508 182.32701,116.20169 C 179.09918,113.47953 174.54918,112.11842 168.67701,112.11836 C 164.94364,112.11842 161.30754,112.56565 157.76867,113.46003 C 154.22976,114.35453 150.82699,115.6962 147.56033,117.48503 L 147.56033,107.56837 C 151.4881,106.05176 155.29921,104.92399 158.99367,104.18503 C 162.68809,103.40732 166.2853,103.01843 169.78533,103.01836 C 179.2353,103.01843 186.29362,105.46843 190.96034,110.36837 C 195.62694,115.26842 197.96028,122.69619 197.96034,132.6517"
   id="flowRoot1432" /></svg>