<?xml version="1.0" encoding="UTF-8" standalone="no"?>
<!-- Created with Inkscape (http://www.inkscape.org/) -->
<svg
   xmlns:a="http://ns.adobe.com/AdobeSVGViewerExtensions/3.0/"
   xmlns:dc="http://purl.org/dc/elements/1.1/"
   xmlns:cc="http://web.resource.org/cc/"
   xmlns:rdf="http://www.w3.org/1999/02/22-rdf-syntax-ns#"
   xmlns:svg="http://www.w3.org/2000/svg"
   xmlns="http://www.w3.org/2000/svg"
   xmlns:xlink="http://www.w3.org/1999/xlink"
   xmlns:sodipodi="http://inkscape.sourceforge.net/DTD/sodipodi-0.dtd"
   xmlns:inkscape="http://www.inkscape.org/namespaces/inkscape"
   version="1.0"
   width="48pt"
   height="48pt"
   viewBox="0 0 256 256"
   id="svg153"
   xml:space="preserve"
   sodipodi:version="0.32"
   inkscape:version="0.43"
   sodipodi:docname="down_arrow.svg"
   sodipodi:docbase="/home/jc/workspace3/flame-edit/images"><metadata
   id="metadata17"><rdf:RDF><cc:Work
       rdf:about=""><dc:format>image/svg+xml</dc:format><dc:type
         rdf:resource="http://purl.org/dc/dcmitype/StillImage" /></cc:Work></rdf:RDF></metadata><sodipodi:namedview
   inkscape:window-height="949"
   inkscape:window-width="1280"
   inkscape:pageshadow="2"
   inkscape:pageopacity="0.0"
   borderopacity="1.0"
   bordercolor="#666666"
   pagecolor="#ffffff"
   id="base"
   inkscape:zoom="12.95"
   inkscape:cx="30"
   inkscape:cy="28.455598"
   inkscape:window-x="0"
   inkscape:window-y="25"
   inkscape:current-layer="g1468" />
  <defs
   id="defs172"><linearGradient
     id="XMLID_8_"
     gradientUnits="userSpaceOnUse"
     x1="174.1934"
     y1="163.7178"
     x2="81.5957"
     y2="71.1201"
     gradientTransform="matrix(0,-1,-1,0,256,256.0029)">
      <stop
   offset="0"
   style="stop-color:#428AFF"
   id="stop645" />
      <stop
   offset="1"
   style="stop-color:#003399"
   id="stop646" />
      <a:midPointStop
   offset="0"
   style="stop-color:#428AFF"
   id="midPointStop647" />
      <a:midPointStop
   offset="0.5"
   style="stop-color:#428AFF"
   id="midPointStop648" />
      <a:midPointStop
   offset="1"
   style="stop-color:#003399"
   id="midPointStop649" />
    </linearGradient><linearGradient
     id="XMLID_7_"
     gradientUnits="userSpaceOnUse"
     x1="202.6377"
     y1="188.0313"
     x2="81.2991"
     y2="66.6926"
     gradientTransform="matrix(0,-1,-1,0,256,256.0029)">
      <stop
   offset="0"
   style="stop-color:#FFFFFF"
   id="stop638" />
      <stop
   offset="1"
   style="stop-color:#DFDFDF"
   id="stop639" />
      <a:midPointStop
   offset="0"
   style="stop-color:#FFFFFF"
   id="midPointStop640" />
      <a:midPointStop
   offset="0.5"
   style="stop-color:#FFFFFF"
   id="midPointStop641" />
      <a:midPointStop
   offset="1"
   style="stop-color:#DFDFDF"
   id="midPointStop642" />
    </linearGradient><linearGradient
     id="XMLID_6_"
     gradientUnits="userSpaceOnUse"
     x1="205.4307"
     y1="189.0156"
     x2="84.0231"
     y2="67.6081"
     gradientTransform="matrix(0,-1,-1,0,256,256.0029)">
      <stop
   offset="0"
   style="stop-color:#FFFFFF"
   id="stop631" />
      <stop
   offset="1"
   style="stop-color:#F0F0F0"
   id="stop632" />
      <a:midPointStop
   offset="0"
   style="stop-color:#FFFFFF"
   id="midPointStop633" />
      <a:midPointStop
   offset="0.5"
   style="stop-color:#FFFFFF"
   id="midPointStop634" />
      <a:midPointStop
   offset="1"
   style="stop-color:#F0F0F0"
   id="midPointStop635" />
    </linearGradient><linearGradient
     id="XMLID_5_"
     gradientUnits="userSpaceOnUse"
     x1="205.2803"
     y1="188.9102"
     x2="83.9377"
     y2="67.5676"
     gradientTransform="matrix(0,-1,-1,0,256,256.0029)">
      <stop
   offset="0"
   style="stop-color:#0066CC"
   id="stop624" />
      <stop
   offset="1"
   style="stop-color:#003399"
   id="stop625" />
      <a:midPointStop
   offset="0"
   style="stop-color:#0066CC"
   id="midPointStop626" />
      <a:midPointStop
   offset="0.5"
   style="stop-color:#0066CC"
   id="midPointStop627" />
      <a:midPointStop
   offset="1"
   style="stop-color:#003399"
   id="midPointStop628" />
    </linearGradient><linearGradient
     x1="86.394997"
     y1="86.276398"
     x2="312.32861"
     y2="312.2099"
     id="XMLID_1_"
     gradientUnits="userSpaceOnUse">
      <stop
   style="stop-color:#ffffff;stop-opacity:1"
   offset="0"
   id="stop161" />
      <stop
   style="stop-color:#99ccff;stop-opacity:1"
   offset="1"
   id="stop162" />
    </linearGradient><linearGradient
     inkscape:collect="always"
     xlink:href="#XMLID_8_"
     id="linearGradient1521"
     gradientUnits="userSpaceOnUse"
     gradientTransform="matrix(0,-1,-1,0,359.4723,453.5851)"
     x1="174.1934"
     y1="163.7178"
     x2="81.5957"
     y2="71.1201" /></defs>
  
  <g
   style="stroke:#000000"
   id="Layer_2">
    <path
   d="M 256,256 L 0,256 L 0,0 L 256,0 L 256,256 z "
   style="fill:none;stroke:none"
   id="path155" />
  </g>
  
<g
   inkscape:groupmode="layer"
   id="layer1"
   inkscape:label="Background"><g
     style="stroke:#000000"
     id="Layer_1">
    <path
   d="M 50.867,22.925 C 41.93,22.925 34.66,30.195 34.66,39.132 L 34.66,229.793 C 34.66,238.73 41.93,246 50.867,246 L 218.65,246 C 227.587,246 234.856,238.729 234.856,229.793 L 234.856,39.132 C 234.856,30.195 227.586,22.925 218.65,22.925 L 50.867,22.925 L 50.867,22.925 z "
   style="opacity:0.2;stroke:none"
   id="path157" />
    <path
   d="M 43.97,16.206 C 35.033,16.206 27.763,23.476 27.763,32.412 L 27.763,223.075 C 27.763,232.011 35.033,239.281 43.97,239.281 L 211.753,239.281 C 220.689,239.281 227.959,232.01 227.959,223.075 L 227.959,32.412 C 227.959,23.476 220.688,16.206 211.753,16.206 L 43.97,16.206 z "
   style="fill:#003366;stroke:none"
   id="path158" />
    <path
   d="M 32.53,223.074 C 32.53,229.391 37.652,234.513 43.97,234.513 L 211.753,234.513 C 218.069,234.513 223.192,229.391 223.192,223.074 L 223.192,32.412 C 223.192,26.094 218.069,20.972 211.753,20.972 L 43.97,20.972 C 37.652,20.972 32.53,26.094 32.53,32.412 L 32.53,223.074 z "
   style="fill:#3399ff;stroke:none"
   id="path159" />
    <linearGradient
   x1="86.394997"
   y1="86.276398"
   x2="312.32861"
   y2="312.2099"
   id="linearGradient1325"
   gradientUnits="userSpaceOnUse">
      <stop
   style="stop-color:#ffffff;stop-opacity:1"
   offset="0"
   id="stop1327" />
      <stop
   style="stop-color:#99ccff;stop-opacity:1"
   offset="1"
   id="stop1329" />
    </linearGradient>
    <path
   d="M 43.97,25.739 C 40.291,25.739 37.297,28.733 37.297,32.412 L 37.297,223.075 C 37.297,226.754 40.291,229.748 43.97,229.748 L 211.753,229.748 C 215.432,229.748 218.426,226.754 218.426,223.075 L 218.426,32.412 C 218.426,28.733 215.432,25.739 211.753,25.739 L 43.97,25.739 L 43.97,25.739 z "
   style="fill:url(#XMLID_1_);stroke:none"
   id="path166" />
    <g
   id="g167">
      
      
    </g>
    <path
   d="M 161.228,106.77 C 178.952,90.153 200.254,81.978 223.193,77.918 L 223.193,32.412 C 223.193,26.094 218.07,20.972 211.754,20.972 L 43.97,20.972 C 37.652,20.972 32.53,26.094 32.53,32.412 L 32.53,168.99 C 79.797,172.557 124.503,139.668 161.228,106.77 z "
   style="opacity:0.4;fill:#ffffff;stroke:none"
   id="path170" />
  </g></g><g
   inkscape:groupmode="layer"
   id="layer2"
   inkscape:label="Down"><g
     style="overflow:visible"
     id="g1468"
     transform="translate(-103.861,-195.9702)">
    <rect
   id="_x3C_Slice_x3E_"
   style="fill:none"
   width="256"
   height="256"
   x="0"
   y="0" />
    
    
    <linearGradient
   id="linearGradient1473"
   gradientUnits="userSpaceOnUse"
   x1="205.2803"
   y1="188.9102"
   x2="83.937698"
   y2="67.567596"
   gradientTransform="matrix(0,-1,-1,0,256,256.0029)">
      <stop
   offset="0"
   style="stop-color:#0066CC"
   id="stop1475" />
      <stop
   offset="1"
   style="stop-color:#003399"
   id="stop1477" />
      <a:midPointStop
   offset="0"
   style="stop-color:#0066CC"
   id="midPointStop626" />
      <a:midPointStop
   offset="0.5"
   style="stop-color:#0066CC"
   id="midPointStop627" />
      <a:midPointStop
   offset="1"
   style="stop-color:#003399"
   id="midPointStop628" />
    </linearGradient>
    
    <linearGradient
   id="linearGradient1480"
   gradientUnits="userSpaceOnUse"
   x1="205.43069"
   y1="189.01559"
   x2="84.023102"
   y2="67.608101"
   gradientTransform="matrix(0,-1,-1,0,256,256.0029)">
      <stop
   offset="0"
   style="stop-color:#FFFFFF"
   id="stop1482" />
      <stop
   offset="1"
   style="stop-color:#F0F0F0"
   id="stop1484" />
      <a:midPointStop
   offset="0"
   style="stop-color:#FFFFFF"
   id="midPointStop633" />
      <a:midPointStop
   offset="0.5"
   style="stop-color:#FFFFFF"
   id="midPointStop634" />
      <a:midPointStop
   offset="1"
   style="stop-color:#F0F0F0"
   id="midPointStop635" />
    </linearGradient>
    
    <linearGradient
   id="linearGradient1487"
   gradientUnits="userSpaceOnUse"
   x1="202.6377"
   y1="188.0313"
   x2="81.299103"
   y2="66.692596"
   gradientTransform="matrix(0,-1,-1,0,256,256.0029)">
      <stop
   offset="0"
   style="stop-color:#FFFFFF"
   id="stop1489" />
      <stop
   offset="1"
   style="stop-color:#DFDFDF"
   id="stop1491" />
      <a:midPointStop
   offset="0"
   style="stop-color:#FFFFFF"
   id="midPointStop640" />
      <a:midPointStop
   offset="0.5"
   style="stop-color:#FFFFFF"
   id="midPointStop641" />
      <a:midPointStop
   offset="1"
   style="stop-color:#DFDFDF"
   id="midPointStop642" />
    </linearGradient>
    
    <linearGradient
   id="linearGradient1494"
   gradientUnits="userSpaceOnUse"
   x1="174.19341"
   y1="163.7178"
   x2="81.595703"
   y2="71.120102"
   gradientTransform="matrix(0,-1,-1,0,256,256.0029)">
      <stop
   offset="0"
   style="stop-color:#428AFF"
   id="stop1496" />
      <stop
   offset="1"
   style="stop-color:#003399"
   id="stop1498" />
      <a:midPointStop
   offset="0"
   style="stop-color:#428AFF"
   id="midPointStop647" />
      <a:midPointStop
   offset="0.5"
   style="stop-color:#428AFF"
   id="midPointStop648" />
      <a:midPointStop
   offset="1"
   style="stop-color:#003399"
   id="midPointStop649" />
    </linearGradient>
    <path
   style="fill:url(#linearGradient1521)"
   d="M 278.4753,353.31901 L 278.4753,353.31901 C 248.2103,392.96401 234.1943,399.46001 231.4703,400.40901 C 228.7443,399.45901 214.7273,392.95401 184.4703,353.31901 C 178.6443,345.68801 172.5683,337.27601 166.3613,328.28501 C 177.4213,328.28501 206.1143,328.28501 206.1143,328.28501 C 206.1143,328.28501 206.1143,258.62501 206.1143,250.63701 C 213.1803,250.63701 249.7633,250.63701 256.8313,250.63701 C 256.8313,258.62501 256.8313,328.28501 256.8313,328.28501 C 256.8313,328.28501 285.5233,328.28501 296.5853,328.28501 C 290.3813,337.27001 284.3053,345.68301 278.4753,353.31901 z "
   id="path650" />
  </g></g></svg>