<?xml version="1.0" encoding="UTF-8" standalone="no"?>
<!-- Created with Inkscape (http://www.inkscape.org/) -->
<svg
   xmlns:dc="http://purl.org/dc/elements/1.1/"
   xmlns:cc="http://web.resource.org/cc/"
   xmlns:rdf="http://www.w3.org/1999/02/22-rdf-syntax-ns#"
   xmlns:svg="http://www.w3.org/2000/svg"
   xmlns="http://www.w3.org/2000/svg"
   xmlns:sodipodi="http://sodipodi.sourceforge.net/DTD/sodipodi-0.dtd"
   xmlns:inkscape="http://www.inkscape.org/namespaces/inkscape"
   height="60.0000000"
   id="svg1"
   inkscape:version="0.45.1"
   sodipodi:docbase="/home/jc/workspace3/flame-edit/images/control_bar"
   sodipodi:docname="info_over.svg"
   sodipodi:version="0.32"
   version="1.0"
   width="60.0000000"
   x="0"
   y="0"
   inkscape:output_extension="org.inkscape.output.svg.inkscape">
  <metadata
     id="metadata3278">
    <rdf:RDF>
      <cc:Work
         rdf:about="">
        <dc:title>Part of the Flat Icon Collection (Wed Aug 25 23:29:46 2004)</dc:title>
        <dc:description />
        <dc:subject>
          <rdf:Bag>
            <rdf:li>hash</rdf:li>
            <rdf:li />
            <rdf:li>action</rdf:li>
            <rdf:li>computer</rdf:li>
            <rdf:li>icons</rdf:li>
            <rdf:li>theme</rdf:li>
          </rdf:Bag>
        </dc:subject>
        <dc:publisher>
          <cc:Agent
             rdf:about="http://www.openclipart.org">
            <dc:title>Danny Allen</dc:title>
          </cc:Agent>
        </dc:publisher>
        <dc:creator>
          <cc:Agent>
            <dc:title>Danny Allen</dc:title>
          </cc:Agent>
        </dc:creator>
        <dc:rights>
          <cc:Agent>
            <dc:title>Danny Allen</dc:title>
          </cc:Agent>
        </dc:rights>
        <dc:date />
        <dc:format>image/svg+xml</dc:format>
        <dc:type
           rdf:resource="http://purl.org/dc/dcmitype/StillImage" />
        <cc:license
           rdf:resource="http://web.resource.org/cc/PublicDomain" />
        <dc:language>en</dc:language>
      </cc:Work>
      <cc:License
         rdf:about="http://web.resource.org/cc/PublicDomain">
        <cc:permits
           rdf:resource="http://web.resource.org/cc/Reproduction" />
        <cc:permits
           rdf:resource="http://web.resource.org/cc/Distribution" />
        <cc:permits
           rdf:resource="http://web.resource.org/cc/DerivativeWorks" />
      </cc:License>
    </rdf:RDF>
  </metadata>
  <sodipodi:namedview
     bordercolor="#666666"
     borderopacity="1.0"
     id="base"
     inkscape:cx="48.892029"
     inkscape:cy="21.841092"
     inkscape:pageopacity="0.0"
     inkscape:pageshadow="2"
     inkscape:window-height="685"
     inkscape:window-width="1016"
     inkscape:window-x="0"
     inkscape:window-y="25"
     inkscape:zoom="6.9465337"
     pagecolor="#ffffff"
     inkscape:current-layer="svg1" />
  <defs
     id="defs3" />
  <path
     style="fill:#d8e8fc;fill-opacity:1;fill-rule:evenodd;stroke:#333333;stroke-width:3.1250000;stroke-dasharray:none;stroke-opacity:1.0000000"
     d="M 30.09375,2.9375 C 15.003099,2.9375 2.749998,15.1906 2.75,30.28125 C 2.75,45.371901 15.003098,57.624999 30.09375,57.625 C 45.1844,57.625 57.43751,45.371901 57.4375,30.28125 C 57.4375,15.190599 45.1844,2.9374999 30.09375,2.9375 z "
     id="path3287" />
  <path
     style="fill:#333333;fill-opacity:1;fill-rule:evenodd;stroke:#333333;stroke-width:3.1250000;stroke-dasharray:none;stroke-opacity:1.0000000"
     d="M 30.09375,8.90625 C 31.41975,8.9062497 32.52881,9.3725564 33.46875,10.3125 C 34.4087,11.252443 34.875,12.375974 34.875,13.71875 C 34.875,15.111881 34.4087,16.295591 33.46875,17.21875 C 32.52881,18.141907 31.41975,18.59375 30.09375,18.59375 C 28.78455,18.59375 27.6587,18.127444 26.71875,17.1875 C 25.77881,16.247557 25.28125,15.078311 25.28125,13.71875 C 25.28125,12.409543 25.77881,11.300478 26.71875,10.34375 C 27.6587,9.3870217 28.78455,8.90625 30.09375,8.90625 z "
     id="path3285" />
  <path
     style="fill:#333333;fill-opacity:1;fill-rule:evenodd;stroke:#333333;stroke-width:3.1250000;stroke-dasharray:none;stroke-opacity:1.0000000"
     d="M 30.09375,23.375 C 31.28547,23.375001 32.23022,23.788083 32.96875,24.59375 C 33.72405,25.382631 34.09375,26.370787 34.09375,27.5625 L 34.09375,47.46875 C 34.09375,48.660465 33.72405,49.6463 32.96875,50.46875 C 32.23022,51.274418 31.28547,51.6875 30.09375,51.6875 C 28.91883,51.687501 27.9428,51.274416 27.1875,50.46875 C 26.44897,49.646302 26.0625,48.660463 26.0625,47.46875 L 26.0625,27.5625 C 26.0625,26.370787 26.44897,25.382631 27.1875,24.59375 C 27.9428,23.788083 28.91883,23.375 30.09375,23.375 z "
     id="path838" />
</svg>
