<?xml version="1.0" encoding="UTF-8" standalone="no"?>
<!-- Created with Inkscape (http://www.inkscape.org/) -->
<svg
   xmlns:svg="http://www.w3.org/2000/svg"
   xmlns="http://www.w3.org/2000/svg"
   version="1.0"
   width="48pt"
   height="48pt"
   viewBox="0 0 256 256"
   id="svg153"
   xml:space="preserve">
  <defs
   id="defs172" />
  
  <g
   style="stroke:#000000"
   id="Layer_2">
    <path
   d="M 256,256 L 0,256 L 0,0 L 256,0 L 256,256 z "
   style="fill:none;stroke:none"
   id="path155" />
  </g>
  <g
   style="stroke:#000000"
   id="Layer_1">
    <path
   d="M 50.867,22.925 C 41.93,22.925 34.66,30.195 34.66,39.132 L 34.66,229.793 C 34.66,238.73 41.93,246 50.867,246 L 218.65,246 C 227.587,246 234.856,238.729 234.856,229.793 L 234.856,39.132 C 234.856,30.195 227.586,22.925 218.65,22.925 L 50.867,22.925 L 50.867,22.925 z "
   style="opacity:0.2;stroke:none"
   id="path157" />
    <path
   d="M 43.97,16.206 C 35.033,16.206 27.763,23.476 27.763,32.412 L 27.763,223.075 C 27.763,232.011 35.033,239.281 43.97,239.281 L 211.753,239.281 C 220.689,239.281 227.959,232.01 227.959,223.075 L 227.959,32.412 C 227.959,23.476 220.688,16.206 211.753,16.206 L 43.97,16.206 z "
   style="fill:#7e7e7e;stroke:none"
   id="path158" />
    <path
   d="M 32.53,223.074 C 32.53,229.391 37.652,234.513 43.97,234.513 L 211.753,234.513 C 218.069,234.513 223.192,229.391 223.192,223.074 L 223.192,32.412 C 223.192,26.094 218.069,20.972 211.753,20.972 L 43.97,20.972 C 37.652,20.972 32.53,26.094 32.53,32.412 L 32.53,223.074 z "
   style="fill:#7e7e7e;stroke:none"
   id="path159" />
    <linearGradient
   x1="86.394997"
   y1="86.276398"
   x2="312.32861"
   y2="312.2099"
   id="XMLID_1_"
   gradientUnits="userSpaceOnUse">
      <stop
   style="stop-color:#ffffff;stop-opacity:1"
   offset="0"
   id="stop161" />
      <stop
   style="stop-color:#7e7e7e;stop-opacity:1"
   offset="1"
   id="stop162" />
    </linearGradient>
    <path
   d="M 43.97,25.739 C 40.291,25.739 37.297,28.733 37.297,32.412 L 37.297,223.075 C 37.297,226.754 40.291,229.748 43.97,229.748 L 211.753,229.748 C 215.432,229.748 218.426,226.754 218.426,223.075 L 218.426,32.412 C 218.426,28.733 215.432,25.739 211.753,25.739 L 43.97,25.739 L 43.97,25.739 z "
   style="fill:url(#XMLID_1_);stroke:none"
   id="path166" />
    <g
   id="g167">
      
      
    </g>
    <path
   d="M 161.228,106.77 C 178.952,90.153 200.254,81.978 223.193,77.918 L 223.193,32.412 C 223.193,26.094 218.07,20.972 211.754,20.972 L 43.97,20.972 C 37.652,20.972 32.53,26.094 32.53,32.412 L 32.53,168.99 C 79.797,172.557 124.503,139.668 161.228,106.77 z "
   style="opacity:0.4;fill:#ffffff;stroke:none"
   id="path170" />
  <rect
   width="105.58745"
   height="126.01133"
   x="76.029961"
   y="64.994331"
   style="fill:#7e7e7e;fill-opacity:0.25098039;stroke:#7e7e7e;stroke-width:17.63445663;stroke-linejoin:round;stroke-miterlimit:4;stroke-dasharray:none;stroke-opacity:0.8"
   id="rect5126" /></g>
</svg>
