<?xml version="1.0" encoding="UTF-8" standalone="no"?>
<!-- Created with Inkscape (http://www.inkscape.org/) -->
<svg
   xmlns:svg="http://www.w3.org/2000/svg"
   xmlns="http://www.w3.org/2000/svg"
   xmlns:xlink="http://www.w3.org/1999/xlink"
   version="1.0"
   width="48pt"
   height="48pt"
   viewBox="0 0 256 256"
   id="svg153"
   xml:space="preserve">
  <defs
   id="defs172"><linearGradient
     id="linearGradient587"><stop
       style="stop-color:#ececec;stop-opacity:1"
       offset="0"
       id="stop588" /><stop
       style="stop-color:#ececec;stop-opacity:1"
       offset="1"
       id="stop589" /></linearGradient><linearGradient
     x1="9.6667213"
     y1="13.733081"
     x2="400.68445"
     y2="13.733081"
     id="linearGradient5110"
     xlink:href="#linearGradient587"
     gradientUnits="userSpaceOnUse"
     gradientTransform="matrix(0.400511,0,0,0.370215,46.14218,49.84071)" /><linearGradient
     id="linearGradient59"><stop
       style="stop-color:#7e7e7e;stop-opacity:1"
       offset="0"
       id="stop60" /><stop
       style="stop-color:#ececec;stop-opacity:1"
       offset="1"
       id="stop61" /></linearGradient><linearGradient
     x1="83.757912"
     y1="325.01923"
     x2="126.95125"
     y2="300.97592"
     id="linearGradient5107"
     xlink:href="#linearGradient59"
     gradientUnits="userSpaceOnUse"
     gradientTransform="matrix(0.390743,0,0,0.379474,46.14218,49.84071)" /><linearGradient
     x1="278.36816"
     y1="161.11916"
     x2="263.87146"
     y2="146.28253"
     id="linearGradient5104"
     xlink:href="#linearGradient618"
     gradientUnits="userSpaceOnUse"
     gradientTransform="matrix(0.387932,0,0,0.382225,46.14218,49.84071)" /><linearGradient
     id="linearGradient610"><stop
       style="stop-color:#cecece;stop-opacity:1"
       offset="0"
       id="stop611" /><stop
       style="stop-color:#aaaaaa;stop-opacity:1"
       offset="1"
       id="stop612" /></linearGradient><linearGradient
     x1="220.0576"
     y1="135.02603"
     x2="234.81305"
     y2="212.83717"
     id="linearGradient5101"
     xlink:href="#linearGradient610"
     gradientUnits="userSpaceOnUse"
     gradientTransform="matrix(0.385067,0,0,0.385067,46.14218,49.84071)" /><linearGradient
     id="linearGradient581"><stop
       style="stop-color:#7e7e7e;stop-opacity:0.38429999"
       offset="0"
       id="stop582" /><stop
       style="stop-color:#787878;stop-opacity:1"
       offset="1"
       id="stop583" /></linearGradient><linearGradient
     x1="191.08234"
     y1="262.77606"
     x2="194.97745"
     y2="218.79749"
     id="linearGradient5098"
     xlink:href="#linearGradient581"
     gradientUnits="userSpaceOnUse"
     gradientTransform="matrix(0.334108,0,0,0.328719,56.87363,54.12686)" /><linearGradient
     id="linearGradient618"><stop
       style="stop-color:#7e7e7e;stop-opacity:1"
       offset="0"
       id="stop619" /><stop
       style="stop-color:#ececec;stop-opacity:1"
       offset="1"
       id="stop620" /></linearGradient><radialGradient
     cx="141.1001"
     cy="93.401802"
     r="54.403721"
     fx="141.1001"
     fy="93.401802"
     id="radialGradient5095"
     xlink:href="#linearGradient618"
     gradientUnits="userSpaceOnUse"
     gradientTransform="matrix(0.429549,0,0,0.345192,46.14218,49.84071)" /><linearGradient
     id="linearGradient607"><stop
       style="stop-color:#ffffff;stop-opacity:0.58429998"
       offset="0"
       id="stop608" /><stop
       style="stop-color:#ececec;stop-opacity:0"
       offset="1"
       id="stop609" /></linearGradient><radialGradient
     cx="195.63872"
     cy="212.37381"
     r="76.714195"
     fx="195.63872"
     fy="212.37381"
     id="radialGradient5092"
     xlink:href="#linearGradient607"
     gradientUnits="userSpaceOnUse"
     gradientTransform="matrix(0.401104,0,0,0.36967,46.14218,49.84071)" /><linearGradient
     x1="86.394997"
     y1="86.276398"
     x2="312.32861"
     y2="312.2099"
     id="XMLID_1_"
     gradientUnits="userSpaceOnUse">
      <stop
   style="stop-color:#ffffff;stop-opacity:1"
   offset="0"
   id="stop161" />
      <stop
   style="stop-color:#ececec;stop-opacity:1"
   offset="1"
   id="stop162" />
    </linearGradient></defs>
  
  <g
   style="stroke:#ececec"
   id="Layer_2">
    <path
   d="M 256,256 L 0,256 L 0,0 L 256,0 L 256,256 z "
   style="fill:none;stroke:none"
   id="path155" />
  </g>
  
<g
   id="layer1"><g
     style="stroke:#ececec"
     id="Layer_1">
    <path
   d="M 50.867,22.925 C 41.93,22.925 34.66,30.195 34.66,39.132 L 34.66,229.793 C 34.66,238.73 41.93,246 50.867,246 L 218.65,246 C 227.587,246 234.856,238.729 234.856,229.793 L 234.856,39.132 C 234.856,30.195 227.586,22.925 218.65,22.925 L 50.867,22.925 L 50.867,22.925 z "
   style="opacity:0.2;stroke:none"
   id="path157" />
    <path
   d="M 43.97,16.206 C 35.033,16.206 27.763,23.476 27.763,32.412 L 27.763,223.075 C 27.763,232.011 35.033,239.281 43.97,239.281 L 211.753,239.281 C 220.689,239.281 227.959,232.01 227.959,223.075 L 227.959,32.412 C 227.959,23.476 220.688,16.206 211.753,16.206 L 43.97,16.206 z "
   style="fill:#787878;stroke:none"
   id="path158" />
    <path
   d="M 32.53,223.074 C 32.53,229.391 37.652,234.513 43.97,234.513 L 211.753,234.513 C 218.069,234.513 223.192,229.391 223.192,223.074 L 223.192,32.412 C 223.192,26.094 218.069,20.972 211.753,20.972 L 43.97,20.972 C 37.652,20.972 32.53,26.094 32.53,32.412 L 32.53,223.074 z "
   style="fill:#787878;stroke:none"
   id="path159" />
    <linearGradient
   x1="86.394997"
   y1="86.276398"
   x2="312.32861"
   y2="312.2099"
   id="linearGradient1325"
   gradientUnits="userSpaceOnUse">
      <stop
   style="stop-color:#ffffff;stop-opacity:1"
   offset="0"
   id="stop1327" />
      <stop
   style="stop-color:#787878;stop-opacity:1"
   offset="1"
   id="stop1329" />
    </linearGradient>
    <path
   d="M 43.97,25.739 C 40.291,25.739 37.297,28.733 37.297,32.412 L 37.297,223.075 C 37.297,226.754 40.291,229.748 43.97,229.748 L 211.753,229.748 C 215.432,229.748 218.426,226.754 218.426,223.075 L 218.426,32.412 C 218.426,28.733 215.432,25.739 211.753,25.739 L 43.97,25.739 L 43.97,25.739 z "
   style="fill:url(#XMLID_1_);stroke:none"
   id="path166" />
    <g
   id="g167">
      
      
    </g>
    <path
   d="M 161.228,106.77 C 178.952,90.153 200.254,81.978 223.193,77.918 L 223.193,32.412 C 223.193,26.094 218.07,20.972 211.754,20.972 L 43.97,20.972 C 37.652,20.972 32.53,26.094 32.53,32.412 L 32.53,168.99 C 79.797,172.557 124.503,139.668 161.228,106.77 z "
   style="opacity:0.4;fill:#ffffff;stroke:none"
   id="path170" />
  </g><path
     d="M 78.119863,101.79385 C 64.089336,112.05291 58.050799,121.18555 52.338948,133.11676 C 59.317828,145.40143 78.662536,179.37586 89.939906,197.14769 C 100.7974,198.54348 110.21474,192.82197 118.02367,187.35775 C 133.85881,176.41451 200.88879,130.11047 204.29628,127.77512 C 197.09014,115.88984 167.97687,66.753974 162.93692,57.278103 C 153.09966,56.795031 135.28671,62.613855 127.37802,68.034206 C 123.85466,66.367677 119.70156,64.591981 114.95823,62.963998 C 106.96551,68.419195 86.115544,82.489649 79.77253,87.117921 C 79.156655,91.114877 78.723148,96.894144 78.119863,101.79385 z "
     style="font-size:12px;fill:url(#linearGradient5110);fill-opacity:1;fill-rule:evenodd;stroke:#787878;stroke-width:4.65041208;stroke-linejoin:bevel"
     id="path601" /><path
     d="M 55.393415,142.64293 C 62.439674,138.35035 94.986282,129.38593 102.59466,126.36195 C 109.48003,136.29757 128.14183,164.73066 133.08736,175.3285 C 132.53082,181.38117 96.311489,202.61844 92.547,201.716 C 87.644405,199.86837 58.607334,149.09209 55.393415,142.64293 z "
     style="font-size:12px;fill:url(#linearGradient5107);fill-opacity:1;fill-rule:evenodd;stroke:#787878;stroke-width:2.47411537;stroke-linejoin:bevel"
     id="path599" /><path
     d="M 163.68961,127.3026 C 163.68961,147.3469 147.19794,163.59605 126.85448,163.59605 C 106.51098,163.59605 90.019306,147.3469 90.019306,127.3026 C 90.019306,107.25829 106.51098,91.009131 126.85448,91.009131 C 147.19794,91.009131 163.68961,107.25829 163.68961,127.3026 z "
     style="font-size:12px;fill:url(#linearGradient5104);fill-opacity:1;fill-rule:evenodd"
     id="path612" /><path
     d="M 158.81428,127.30267 C 158.81428,144.95363 144.50535,159.26259 126.8544,159.26259 C 109.20345,159.26259 94.894482,144.95363 94.894482,127.30267 C 94.894482,109.65172 109.20345,95.342755 126.8544,95.342755 C 144.50535,95.342755 158.81428,109.65172 158.81428,127.30267 z "
     style="font-size:12px;fill:url(#linearGradient5101);fill-opacity:1;fill-rule:evenodd"
     id="path614" /><path
     d="M 143.10525,128.11524 C 143.10525,137.23989 135.58698,144.63691 126.31277,144.63691 C 117.03852,144.63691 109.52027,137.23989 109.52027,128.11524 C 109.52027,118.99059 117.03852,111.5936 126.31277,111.5936 C 135.58698,111.5936 143.10525,118.99059 143.10525,128.11524 z "
     style="font-size:12px;fill:url(#linearGradient5098);fill-opacity:1;fill-rule:evenodd"
     id="path617" /><path
     d="M 85.807105,88.156635 L 85.140392,102.11785 L 125.02502,75.425483 L 111.78924,70.349417 L 85.807105,88.156635 z "
     style="font-size:12px;fill:url(#radialGradient5095);fill-opacity:1;fill-rule:evenodd;stroke:#787878;stroke-width:1.44400012"
     id="path604" /><path
     d="M 142.82022,118.2032 C 147.89529,125.85436 144.84106,136.48013 135.99816,141.93632 C 127.15552,147.39261 115.8728,145.61326 110.79762,137.96209 C 105.72259,130.31089 108.77691,119.68513 117.61965,114.22892 C 126.46244,108.77266 137.74505,110.55201 142.82022,118.2032 z "
     style="font-size:12px;fill:url(#radialGradient5092);fill-opacity:1;fill-rule:evenodd"
     id="path607" /><path
     d="M 166.93996,75.841509 C 162.70277,68.759979 162.27819,65.243207 158.81462,62.299135 C 156.18027,60.059943 146.26645,70.062242 147.43898,75.841509 C 149.10675,84.061533 185.08361,126.88896 189.69116,126.7608 C 191.46155,123.32712 169.97775,80.918423 166.93996,75.841509 z "
     style="font-size:12px;fill:#ffffff;fill-opacity:0.74489997;fill-rule:evenodd;stroke-width:1"
     id="path609" /></g><g
   id="layer2" /></svg>
