<?xml version="1.0" encoding="UTF-8" standalone="no"?>
<!-- Created with Inkscape (http://www.inkscape.org/) -->
<svg
   xmlns:svg="http://www.w3.org/2000/svg"
   xmlns="http://www.w3.org/2000/svg"
   xmlns:xlink="http://www.w3.org/1999/xlink"
   version="1.0"
   width="48pt"
   height="48pt"
   viewBox="0 0 256 256"
   id="svg153"
   xml:space="preserve">
  <defs
   id="defs172"><linearGradient
     id="linearGradient848"><stop
       style="stop-color:#ffffff;stop-opacity:1"
       offset="0"
       id="stop849" /><stop
       style="stop-color:#7e7e7e;stop-opacity:1"
       offset="1"
       id="stop850" /></linearGradient><linearGradient
     x1="312.94342"
     y1="212.15627"
     x2="352.46036"
     y2="275.87735"
     id="linearGradient645"
     xlink:href="#linearGradient848"
     gradientUnits="userSpaceOnUse"
     gradientTransform="matrix(0.258619,0,0,0.363281,64.14856,63.49332)" /><linearGradient
     id="linearGradient48"><stop
       style="stop-color:#ffffff;stop-opacity:1"
       offset="0"
       id="stop49" /><stop
       style="stop-color:#7e7e7e;stop-opacity:1"
       offset="1"
       id="stop50" /></linearGradient><linearGradient
     x1="266.84775"
     y1="301.35538"
     x2="294.94763"
     y2="335.71939"
     id="linearGradient602"
     xlink:href="#linearGradient48"
     gradientUnits="userSpaceOnUse"
     gradientTransform="matrix(0.273678,0,0,0.343294,64.14856,63.49332)" /><linearGradient
     id="linearGradient53"><stop
       style="stop-color:#ffffff;stop-opacity:1"
       offset="0"
       id="stop54" /><stop
       style="stop-color:#7e7e7e;stop-opacity:1"
       offset="1"
       id="stop55" /></linearGradient><linearGradient
     x1="313.26004"
     y1="117.16185"
     x2="384.25458"
     y2="188.47333"
     id="linearGradient51"
     xlink:href="#linearGradient53"
     gradientUnits="userSpaceOnUse"
     gradientTransform="matrix(0.279785,0,0,0.335799,64.14856,63.49332)" /><linearGradient
     x1="86.394997"
     y1="86.276398"
     x2="312.32861"
     y2="312.2099"
     id="XMLID_1_"
     gradientUnits="userSpaceOnUse">
      <stop
   style="stop-color:#ffffff;stop-opacity:1"
   offset="0"
   id="stop161" />
      <stop
   style="stop-color:#7e7e7e;stop-opacity:1"
   offset="1"
   id="stop162" />
    </linearGradient></defs>
  
  <g
   style="stroke:#000000"
   id="Layer_2">
    <path
   d="M 256,256 L 0,256 L 0,0 L 256,0 L 256,256 z "
   style="fill:none;stroke:none"
   id="path155" />
  </g>
  
<g
   id="layer3"><g
     style="stroke:#000000"
     id="Layer_1">
    <path
   d="M 50.867,22.925 C 41.93,22.925 34.66,30.195 34.66,39.132 L 34.66,229.793 C 34.66,238.73 41.93,246 50.867,246 L 218.65,246 C 227.587,246 234.856,238.729 234.856,229.793 L 234.856,39.132 C 234.856,30.195 227.586,22.925 218.65,22.925 L 50.867,22.925 L 50.867,22.925 z "
   style="opacity:0.2;stroke:none"
   id="path157" />
    <path
   d="M 43.97,16.206 C 35.033,16.206 27.763,23.476 27.763,32.412 L 27.763,223.075 C 27.763,232.011 35.033,239.281 43.97,239.281 L 211.753,239.281 C 220.689,239.281 227.959,232.01 227.959,223.075 L 227.959,32.412 C 227.959,23.476 220.688,16.206 211.753,16.206 L 43.97,16.206 z "
   style="fill:#7e7e7e;stroke:none"
   id="path158" />
    <path
   d="M 32.53,223.074 C 32.53,229.391 37.652,234.513 43.97,234.513 L 211.753,234.513 C 218.069,234.513 223.192,229.391 223.192,223.074 L 223.192,32.412 C 223.192,26.094 218.069,20.972 211.753,20.972 L 43.97,20.972 C 37.652,20.972 32.53,26.094 32.53,32.412 L 32.53,223.074 z "
   style="fill:#7e7e7e;stroke:none"
   id="path159" />
    <linearGradient
   x1="86.394997"
   y1="86.276398"
   x2="312.32861"
   y2="312.2099"
   id="linearGradient1520"
   gradientUnits="userSpaceOnUse">
      <stop
   style="stop-color:#ffffff;stop-opacity:1"
   offset="0"
   id="stop1522" />
      <stop
   style="stop-color:#7e7e7e;stop-opacity:1"
   offset="1"
   id="stop1524" />
    </linearGradient>
    <path
   d="M 43.97,25.739 C 40.291,25.739 37.297,28.733 37.297,32.412 L 37.297,223.075 C 37.297,226.754 40.291,229.748 43.97,229.748 L 211.753,229.748 C 215.432,229.748 218.426,226.754 218.426,223.075 L 218.426,32.412 C 218.426,28.733 215.432,25.739 211.753,25.739 L 43.97,25.739 L 43.97,25.739 z "
   style="fill:url(#XMLID_1_);stroke:none"
   id="path166" />
    <g
   id="g167">
      
      
    </g>
    <path
   d="M 161.228,106.77 C 178.952,90.153 200.254,81.978 223.193,77.918 L 223.193,32.412 C 223.193,26.094 218.07,20.972 211.754,20.972 L 43.97,20.972 C 37.652,20.972 32.53,26.094 32.53,32.412 L 32.53,168.99 C 79.797,172.557 124.503,139.668 161.228,106.77 z "
   style="opacity:0.4;fill:#ffffff;stroke:none"
   id="path170" />
  </g></g><g
   id="layer4"><path
     d="M 73.562714,187.54958 C 94.574636,187.45457 134.23952,187.34167 156.02534,187.47949 C 155.91593,161.66018 155.81842,87.201025 155.9276,76.03467 C 141.93856,76.119342 86.858382,75.865326 73.993317,75.949998 C 74.233974,83.422772 73.357337,172.33591 73.562714,187.54958 z "
     style="font-size:12px;fill:#ffffff;fill-opacity:1;fill-rule:evenodd;stroke:#7e7e7e;stroke-width:6.39311886;stroke-linejoin:bevel;stroke-dashoffset:0"
     id="path664" /><path
     d="M 84.90688,93.479455 L 84.90688,110.05964 L 143.96217,110.05964 L 143.96217,93.479455 L 84.90688,93.479455 z "
     style="font-size:12px;fill:#7e7e7e;fill-opacity:1;fill-rule:evenodd"
     id="path587" /><path
     d="M 84.90688,127.14787 L 84.90688,139.78046 L 143.96217,139.78046 L 143.96217,127.14787 L 84.90688,127.14787 z "
     style="font-size:12px;fill:#7e7e7e;fill-opacity:1;fill-rule:evenodd"
     id="path588" /><path
     d="M 84.965351,156.86868 L 84.965351,171.06676 L 143.80243,171.06676 L 143.80243,156.86868 L 84.965351,156.86868 z "
     style="font-size:12px;fill:#7e7e7e;fill-opacity:1;fill-rule:evenodd"
     id="path589" /><path
     d="M 130.86595,182.36719 C 137.43245,177.46845 160.40515,157.31555 169.03299,149.2148 C 163.22661,134.26173 162.20349,131.17779 151.74001,123.83625 L 128.28665,136.14521 L 130.86595,182.36719 z "
     style="font-size:12px;fill:url(#linearGradient645);fill-opacity:1;fill-rule:evenodd;stroke:#7e7e7e;stroke-width:3.1990211;stroke-linejoin:round"
     id="path640" /><path
     d="M 129.58383,183.80849 C 135.08548,177.96284 142.90838,172.37025 148.80475,166.09182 C 143.34421,157.93038 136.6625,157.69471 129.31038,159.35851 C 129.35977,165.79734 129.34689,174.06886 129.58383,183.80849 z "
     style="font-size:12px;fill:url(#linearGradient602);fill-opacity:1;fill-rule:evenodd;stroke:#7e7e7e;stroke-width:3.21906042;stroke-linejoin:round"
     id="path644" /><path
     d="M 127.94736,135.98433 C 144.55125,134.45411 158.67054,131.90785 169.01027,149.03511 C 172.39541,139.16283 190.72107,88.800386 195.50602,77.926619 C 193.42629,69.273139 179.91485,64.865962 168.29822,68.623048 C 160.16087,80.032601 138.4139,115.04448 127.94736,135.98433 z "
     style="font-size:12px;fill:url(#linearGradient51);fill-opacity:1;fill-rule:evenodd;stroke:#7e7e7e;stroke-width:3.38162994;stroke-linejoin:round"
     id="path637" /></g></svg>
