<?xml version="1.0" encoding="UTF-8" standalone="no"?>
<!-- Created with Inkscape (http://www.inkscape.org/) -->
<svg
   xmlns:dc="http://purl.org/dc/elements/1.1/"
   xmlns:cc="http://web.resource.org/cc/"
   xmlns:rdf="http://www.w3.org/1999/02/22-rdf-syntax-ns#"
   xmlns:svg="http://www.w3.org/2000/svg"
   xmlns="http://www.w3.org/2000/svg"
   xmlns:sodipodi="http://sodipodi.sourceforge.net/DTD/sodipodi-0.dtd"
   xmlns:inkscape="http://www.inkscape.org/namespaces/inkscape"
   height="60.0000000"
   id="svg1"
   inkscape:version="0.45.1"
   sodipodi:docbase="/home/jc/workspace3/flame-edit/images/control_bar"
   sodipodi:docname="help_over.svg"
   sodipodi:version="0.32"
   version="1.0"
   width="60.0000000"
   x="0"
   y="0"
   inkscape:output_extension="org.inkscape.output.svg.inkscape">
  <metadata
     id="metadata3">
    <rdf:RDF>
      <cc:Work
         rdf:about="">
        <dc:title>Part of the Flat Icon Collection (Wed Aug 25 23:29:46 2004)</dc:title>
        <dc:description />
        <dc:subject>
          <rdf:Bag>
            <rdf:li>hash</rdf:li>
            <rdf:li />
            <rdf:li>action</rdf:li>
            <rdf:li>computer</rdf:li>
            <rdf:li>icons</rdf:li>
            <rdf:li>theme</rdf:li>
          </rdf:Bag>
        </dc:subject>
        <dc:publisher>
          <cc:Agent
             rdf:about="http://www.openclipart.org">
            <dc:title>Danny Allen</dc:title>
          </cc:Agent>
        </dc:publisher>
        <dc:creator>
          <cc:Agent>
            <dc:title>Danny Allen</dc:title>
          </cc:Agent>
        </dc:creator>
        <dc:rights>
          <cc:Agent>
            <dc:title>Danny Allen</dc:title>
          </cc:Agent>
        </dc:rights>
        <dc:date />
        <dc:format>image/svg+xml</dc:format>
        <dc:type
           rdf:resource="http://purl.org/dc/dcmitype/StillImage" />
        <cc:license
           rdf:resource="http://web.resource.org/cc/PublicDomain" />
        <dc:language>en</dc:language>
      </cc:Work>
      <cc:License
         rdf:about="http://web.resource.org/cc/PublicDomain">
        <cc:permits
           rdf:resource="http://web.resource.org/cc/Reproduction" />
        <cc:permits
           rdf:resource="http://web.resource.org/cc/Distribution" />
        <cc:permits
           rdf:resource="http://web.resource.org/cc/DerivativeWorks" />
      </cc:License>
    </rdf:RDF>
  </metadata>
  <sodipodi:namedview
     bordercolor="#666666"
     borderopacity="1.0"
     id="base"
     inkscape:cx="42.35945"
     inkscape:cy="21.841094"
     inkscape:pageopacity="0.0"
     inkscape:pageshadow="2"
     inkscape:window-height="685"
     inkscape:window-width="1016"
     inkscape:window-x="0"
     inkscape:window-y="25"
     inkscape:zoom="9.8238822"
     pagecolor="#ffffff"
     inkscape:current-layer="svg1" />
  <defs
     id="defs3" />
  <path
     style="fill:#d8e8fc;fill-opacity:1;fill-rule:evenodd;stroke:#333333;stroke-width:3.1250000;stroke-dasharray:none;stroke-opacity:1.0000000"
     d="M 30.09375,2.9375 C 15.003099,2.9375 2.749998,15.1906 2.75,30.28125 C 2.75,45.371901 15.003098,57.624999 30.09375,57.625 C 45.1844,57.625 57.43751,45.371901 57.4375,30.28125 C 57.4375,15.190599 45.1844,2.9374999 30.09375,2.9375 z "
     id="path2162" />
  <path
     style="fill:#333333;fill-opacity:1;fill-rule:evenodd;stroke:#333333;stroke-width:3.1250000;stroke-dasharray:none;stroke-opacity:1.0000000"
     d="M 29.59375,10.53125 C 31.335517,10.53125 32.99047,10.798264 34.5,11.3125 C 36.00953,11.826735 37.338823,12.567205 38.5,13.5625 C 39.661176,14.557794 40.571809,15.760911 41.21875,17.1875 C 41.882279,18.5975 42.1875,20.195734 42.1875,21.9375 C 42.187502,25.05609 41.419633,27.462323 39.84375,29.1875 C 38.284455,30.89609 36.143311,32.02975 33.40625,32.59375 L 33.40625,33.59375 C 33.406251,34.389985 33.223354,35.104985 32.875,35.71875 C 32.543235,36.315926 32.051264,36.776647 31.4375,37.125 C 30.840322,37.456766 30.16931,37.625 29.40625,37.625 C 28.643191,37.625001 27.957515,37.456765 27.34375,37.125 C 26.746572,36.776648 26.285853,36.315927 25.9375,35.71875 C 25.605734,35.104984 25.4375,34.389986 25.4375,33.59375 L 25.4375,29.5 C 25.4375,28.653999 25.589147,27.979133 25.9375,27.53125 C 26.285853,27.083367 26.721103,26.790883 27.21875,26.625 C 27.716397,26.459118 28.473456,26.27622 29.46875,26.09375 C 32.056517,25.612691 33.34375,24.310795 33.34375,22.1875 C 33.343749,21.32491 32.977956,20.555118 32.28125,19.875 C 31.601131,19.178292 30.705163,18.84375 29.59375,18.84375 C 28.56528,18.84375 27.753426,19.039382 27.15625,19.4375 C 26.575661,19.835618 26.018088,20.424441 25.4375,21.1875 C 24.873499,21.933971 24.312073,22.508132 23.78125,22.90625 C 23.267013,23.28778 22.552016,23.46875 21.65625,23.46875 C 20.644368,23.468749 19.792382,23.075559 19.0625,22.3125 C 18.349206,21.532853 18,20.63881 18,19.59375 C 17.999999,17.769043 18.586897,16.158074 19.78125,14.78125 C 20.975605,13.404425 22.458469,12.354883 24.25,11.625 C 26.041529,10.895117 27.818808,10.53125 29.59375,10.53125 z "
     id="path2160" />
  <path
     style="fill:#333333;fill-opacity:1;fill-rule:evenodd;stroke:#333333;stroke-width:3.1250000;stroke-dasharray:none;stroke-opacity:1.0000000"
     d="M 29.34375,42.0625 C 30.123397,42.062499 30.851132,42.272794 31.53125,42.6875 C 32.211368,43.102205 32.726882,43.647043 33.125,44.34375 C 33.539707,45.023868 33.75,45.766264 33.75,46.5625 C 33.750001,47.375322 33.539706,48.147045 33.125,48.84375 C 32.726883,49.523871 32.196706,50.039382 31.5,50.4375 C 30.819882,50.835619 30.106809,51.03125 29.34375,51.03125 C 28.58069,51.031248 27.852957,50.835618 27.15625,50.4375 C 26.476134,50.039383 25.914706,49.523871 25.5,48.84375 C 25.101882,48.147045 24.90625,47.375322 24.90625,46.5625 C 24.906251,45.766264 25.101883,45.023868 25.5,44.34375 C 25.914705,43.647043 26.476133,43.102206 27.15625,42.6875 C 27.83637,42.272793 28.564102,42.0625 29.34375,42.0625 z "
     id="path839" />
</svg>
